（2025年05月05日）
```
Audio
ID                             : 2
Format                         : FLAC
Format/Info                    : Free Lossless Audio Codec
Codec ID                       : A_FLAC
Duration                       : 1 h 29 min
Bit rate mode                  : Variable
Bit rate                       : 695 kb/s
Channel(s)                     : 2 channels
Channel layout                 : L R
Sampling rate                  : 48.0 kHz
Frame rate                     : 11.719 FPS (4096 SPF)
Bit depth                      : 16 bits
Compression mode               : Lossless
Stream size                    : 447 MiB (17%)
Writing library                : libFLAC 1.2.1 (2007-09-17)
Language                       : Japanese
Default                        : Yes
Forced                         : No
MD5 of the unencoded content   : 550E849B9148F64F766225C68E5A5DC4
```
在mkv文件播放中，无法查看mka独立音轨的MediaInfo, 上面是内嵌音轨。
```
Audio
ID                             : 1
Format                         : FLAC
Format/Info                    : Free Lossless Audio Codec
Codec ID                       : A_FLAC
Duration                       : 1 h 29 min
Bit rate mode                  : Variable
Bit rate                       : 1 336 kb/s
Channel(s)                     : 6 channels
Channel layout                 : L R C LFE Ls Rs
Sampling rate                  : 48.0 kHz
Frame rate                     : 11.719 FPS (4096 SPF)
Bit depth                      : 16 bits
Compression mode               : Lossless
Stream size                    : 860 MiB (100%)
Writing library                : libFLAC 1.2.1 (2007-09-17)
Default                        : Yes
Forced                         : No
MD5 of the unencoded content   : DEAF0C20D119204EAA00C52FBE3E5927
```
独立音轨文件mka（包含多声道）。&mkv或mka都可以内置字幕及字体、音频。
动画电影的视频内容是音频大6倍。比预期的差距小些。